<?xml version="1.0" encoding="utf-8"?>
<!-- Generator: Adobe Illustrator 16.0.3, SVG Export Plug-In . SVG Version: 6.00 Build 0)  -->
<!DOCTYPE svg PUBLIC "-//W3C//DTD SVG 1.1 Tiny//EN" "http://www.w3.org/Graphics/SVG/1.1/DTD/svg11-tiny.dtd">
<svg version="1.1" baseProfile="tiny" id="Ebene_1" xmlns="http://www.w3.org/2000/svg" xmlns:xlink="http://www.w3.org/1999/xlink"
	 x="0px" y="0px" width="85.04px" height="85.04px" viewBox="0 0 85.04 85.04" xml:space="preserve">
<g>
	<path fill="#FFFFFF" d="M30.101,34.195h1.775v3.406c-0.923,0.695-2.195,1.067-3.394,1.067c-2.639,0-4.582-1.811-4.582-4.342
		c0-2.531,1.943-4.342,4.618-4.342c1.475,0,2.698,0.504,3.514,1.452l-1.247,1.151c-0.612-0.648-1.319-0.948-2.171-0.948
		c-1.631,0-2.747,1.091-2.747,2.687c0,1.571,1.116,2.687,2.723,2.687c0.528,0,1.02-0.096,1.511-0.36V34.195z"/>
	<path fill="#FFFFFF" d="M39.833,35.826h-4.881c0.18,0.804,0.864,1.295,1.847,1.295c0.684,0,1.175-0.204,1.619-0.624l0.996,1.08
		c-0.6,0.684-1.5,1.043-2.663,1.043c-2.231,0-3.682-1.403-3.682-3.322c0-1.931,1.475-3.322,3.442-3.322
		c1.896,0,3.358,1.271,3.358,3.346C39.869,35.467,39.845,35.67,39.833,35.826z M34.927,34.735h3.178
		c-0.132-0.815-0.744-1.343-1.583-1.343C35.671,33.392,35.059,33.907,34.927,34.735z"/>
	<path fill="#FFFFFF" d="M45.282,38.213c-0.384,0.276-0.947,0.408-1.523,0.408c-1.522,0-2.41-0.78-2.41-2.315v-2.65h-0.996v-1.439
		h0.996v-1.571h1.871v1.571h1.607v1.439h-1.607v2.626c0,0.552,0.301,0.852,0.804,0.852c0.276,0,0.552-0.084,0.756-0.24
		L45.282,38.213z"/>
	<path fill="#FFFFFF" d="M49.506,30.129c0-0.587,0.469-1.043,1.164-1.043s1.162,0.432,1.162,1.008c0,0.624-0.467,1.079-1.162,1.079
		S49.506,30.717,49.506,30.129z M49.735,32.072h1.871v6.453h-1.871V32.072z"/>
	<path fill="#FFFFFF" d="M59.944,34.831v3.694h-1.871v-3.406c0-1.043-0.479-1.523-1.308-1.523c-0.899,0-1.548,0.552-1.548,1.739
		v3.19h-1.87v-6.453h1.786v0.756c0.505-0.552,1.261-0.852,2.136-0.852C58.792,31.977,59.944,32.864,59.944,34.831z"/>
	<path fill="#FFFFFF" d="M25.741,46.112h-2.687V44.53h7.316v1.582h-2.687v6.813H25.74L25.741,46.112L25.741,46.112z"/>
	<path fill="#FFFFFF" d="M30.146,49.698c0-1.941,1.499-3.32,3.55-3.32c2.051,0,3.538,1.379,3.538,3.32
		c0,1.943-1.487,3.322-3.538,3.322C31.645,53.02,30.146,51.641,30.146,49.698z M35.339,49.698c0-1.115-0.708-1.787-1.644-1.787
		c-0.935,0-1.655,0.672-1.655,1.787c0,1.117,0.72,1.787,1.655,1.787C34.631,51.485,35.339,50.815,35.339,49.698z"/>
	<path fill="#FFFFFF" d="M44.987,46.472v6.452h-1.775v-0.768C42.72,52.721,42,53.02,41.208,53.02c-1.619,0-2.758-0.91-2.758-2.902
		v-3.646h1.871v3.37c0,1.08,0.479,1.559,1.307,1.559c0.863,0,1.488-0.551,1.488-1.738v-3.189L44.987,46.472L44.987,46.472z"/>
	<path fill="#FFFFFF" d="M46.25,49.698c0-1.941,1.498-3.32,3.598-3.32c1.355,0,2.423,0.586,2.891,1.644l-1.451,0.778
		c-0.348-0.61-0.863-0.889-1.451-0.889c-0.946,0-1.69,0.66-1.69,1.787c0,1.129,0.744,1.787,1.69,1.787
		c0.588,0,1.104-0.264,1.451-0.887l1.451,0.791c-0.468,1.031-1.535,1.631-2.891,1.631C47.749,53.02,46.25,51.641,46.25,49.698z"/>
	<path fill="#FFFFFF" d="M60.37,49.231v3.693h-1.871v-3.406c0-1.043-0.479-1.523-1.308-1.523c-0.899,0-1.547,0.553-1.547,1.74v3.189
		h-1.871v-8.898h1.871v3.117c0.504-0.502,1.224-0.768,2.051-0.768C59.217,46.375,60.37,47.264,60.37,49.231z"/>
</g>
<g>
	<path fill="#B4CF38" d="M16.809,34.134c3.54-10.797,13.703-18.617,25.662-18.617c14.898,0,27.004,12.115,27.004,27.002
		c0,14.892-12.105,27.01-27.004,27.01c-12.235,0-22.59-8.185-25.893-19.372H1.943C5.537,69.265,22.336,83.773,42.47,83.773
		c22.753,0,41.254-18.507,41.254-41.253c0-22.744-18.501-41.248-41.254-41.248c-19.87,0-36.504,14.126-40.389,32.862H16.809"/>
</g>
</svg>
