<?xml version="1.0" encoding="utf-8"?>
<!-- Generator: Adobe Illustrator 16.0.3, SVG Export Plug-In . SVG Version: 6.00 Build 0)  -->
<!DOCTYPE svg PUBLIC "-//W3C//DTD SVG 1.1 Tiny//EN" "http://www.w3.org/Graphics/SVG/1.1/DTD/svg11-tiny.dtd">
<svg version="1.1" baseProfile="tiny" id="Ebene_1" xmlns="http://www.w3.org/2000/svg" xmlns:xlink="http://www.w3.org/1999/xlink"
	 x="0px" y="0px" width="141.73px" height="28.35px" viewBox="0 0 141.73 28.35" xml:space="preserve">
<g>
	<g>
		<path fill="#B4CF38" d="M122.299,11.934c0.887-2.704,3.433-4.662,6.43-4.662c3.729,0,6.763,3.033,6.763,6.762
			c0,3.729-3.034,6.766-6.763,6.766c-3.065,0-5.657-2.052-6.486-4.853h-3.665c0.901,4.784,5.108,8.417,10.151,8.417
			c5.695,0,10.33-4.634,10.33-10.33c0-5.695-4.635-10.33-10.33-10.33c-4.977,0-9.145,3.538-10.117,8.23H122.299"/>
	</g>
	<g>
		<path fill="#3B4645" d="M7.451,20.53c-1.563,0-2.867-0.525-3.911-1.578c-1.045-1.051-1.567-2.344-1.567-3.88
			c0-1.549,0.522-2.846,1.567-3.892c1.044-1.044,2.348-1.566,3.911-1.566c1.01,0,1.93,0.242,2.76,0.727
			c0.831,0.484,1.453,1.134,1.868,1.951l-1.93,1.12c-0.236-0.498-0.592-0.888-1.069-1.172c-0.478-0.284-1.027-0.426-1.649-0.426
			c-0.913,0-1.678,0.312-2.294,0.934c-0.616,0.623-0.923,1.398-0.923,2.325c0,0.926,0.307,1.702,0.923,2.324
			s1.381,0.935,2.294,0.935c0.608,0,1.158-0.146,1.649-0.437c0.492-0.291,0.861-0.679,1.11-1.162l1.93,1.1
			c-0.442,0.83-1.079,1.488-1.909,1.972C9.381,20.287,8.461,20.53,7.451,20.53z"/>
		<path fill="#3B4645" d="M18.72,20.53c-1.522,0-2.816-0.525-3.88-1.578c-1.066-1.051-1.599-2.344-1.599-3.88
			c0-1.536,0.533-2.829,1.599-3.881c1.064-1.051,2.358-1.577,3.88-1.577c1.536,0,2.833,0.526,3.891,1.577
			c1.058,1.052,1.587,2.346,1.587,3.881c0,1.536-0.529,2.829-1.587,3.88C21.553,20.005,20.256,20.53,18.72,20.53z M16.417,17.418
			c0.623,0.621,1.391,0.934,2.304,0.934s1.681-0.313,2.303-0.934c0.624-0.623,0.935-1.406,0.935-2.346
			c0-0.94-0.311-1.723-0.935-2.345c-0.622-0.623-1.39-0.934-2.303-0.934s-1.681,0.312-2.304,0.934
			c-0.622,0.623-0.934,1.405-0.934,2.345C15.483,16.012,15.794,16.795,16.417,17.418z"/>
		<path fill="#3B4645" d="M31.939,9.614c1.19,0,2.151,0.38,2.884,1.141c0.733,0.761,1.101,1.806,1.101,3.134v6.371h-2.242v-6.144
			c0-0.774-0.208-1.37-0.622-1.785c-0.416-0.415-0.983-0.623-1.702-0.623c-0.79,0-1.426,0.246-1.91,0.737
			c-0.485,0.491-0.727,1.241-0.727,2.252v5.562H26.48V9.884h2.242v1.329C29.4,10.146,30.473,9.614,31.939,9.614z"/>
		<path fill="#3B4645" d="M40.593,12.734c0,0.342,0.192,0.612,0.575,0.81c0.383,0.198,0.844,0.379,1.38,0.545
			c0.537,0.164,1.087,0.335,1.65,0.508c0.563,0.174,1.035,0.494,1.411,0.963c0.378,0.469,0.567,1.062,0.567,1.774
			c0,0.997-0.384,1.777-1.152,2.345c-0.768,0.568-1.733,0.852-2.896,0.852c-1.023,0-1.902-0.215-2.635-0.643
			c-0.734-0.43-1.266-1.025-1.598-1.785l1.93-1.121c0.359,0.996,1.127,1.494,2.303,1.494c1.176,0,1.765-0.388,1.765-1.162
			c0-0.332-0.19-0.603-0.571-0.81c-0.38-0.207-0.839-0.395-1.376-0.56c-0.536-0.165-1.086-0.335-1.649-0.509
			c-0.563-0.173-1.035-0.485-1.416-0.934c-0.38-0.45-0.57-1.021-0.57-1.712c0-0.955,0.363-1.723,1.089-2.304
			c0.726-0.581,1.629-0.872,2.708-0.872c0.857,0,1.622,0.19,2.292,0.57c0.671,0.381,1.186,0.91,1.546,1.588l-1.889,1.058
			c-0.359-0.789-1.01-1.183-1.95-1.183c-0.429,0-0.789,0.092-1.08,0.277C40.738,12.109,40.593,12.378,40.593,12.734z"/>
		<path fill="#3B4645" d="M48.272,20.261V9.884h2.241v10.377H48.272z"/>
		<path fill="#3B4645" d="M55.306,12.734c0,0.342,0.192,0.612,0.575,0.81c0.384,0.198,0.844,0.379,1.381,0.545
			c0.535,0.164,1.086,0.335,1.648,0.508c0.564,0.174,1.035,0.494,1.41,0.963c0.378,0.469,0.568,1.062,0.568,1.774
			c0,0.997-0.384,1.777-1.151,2.345c-0.768,0.568-1.735,0.852-2.897,0.852c-1.024,0-1.902-0.215-2.634-0.643
			c-0.734-0.43-1.266-1.025-1.598-1.785l1.931-1.121c0.359,0.996,1.126,1.494,2.302,1.494c1.176,0,1.765-0.388,1.765-1.162
			c0-0.332-0.189-0.603-0.57-0.81c-0.381-0.207-0.841-0.395-1.375-0.56c-0.538-0.165-1.086-0.335-1.651-0.509
			c-0.562-0.173-1.035-0.485-1.415-0.934c-0.381-0.45-0.571-1.021-0.571-1.712c0-0.955,0.364-1.723,1.089-2.304
			c0.726-0.581,1.628-0.872,2.709-0.872c0.856,0,1.622,0.19,2.292,0.57c0.673,0.381,1.187,0.91,1.546,1.588l-1.886,1.058
			c-0.362-0.789-1.01-1.183-1.951-1.183c-0.429,0-0.789,0.092-1.081,0.277C55.452,12.109,55.306,12.378,55.306,12.734z"/>
		<path fill="#3B4645" d="M68.484,12.042h-2.574v4.981c0,0.428,0.098,0.736,0.292,0.922c0.193,0.188,0.48,0.291,0.86,0.313
			c0.38,0.02,0.854,0.017,1.421-0.012v2.014c-1.715,0.207-2.946,0.059-3.693-0.446c-0.748-0.506-1.12-1.435-1.12-2.791v-4.981H61.76
			V9.884h1.911V7.642l2.24-0.664v2.905h2.574V12.042z"/>
		<path fill="#3B4645" d="M72.115,16.027c0.166,0.787,0.547,1.393,1.142,1.816c0.595,0.421,1.321,0.632,2.179,0.632
			c1.189,0,2.083-0.428,2.677-1.286l1.847,1.078c-1.023,1.509-2.538,2.263-4.543,2.263c-1.689,0-3.051-0.517-4.089-1.547
			c-1.038-1.03-1.556-2.335-1.556-3.911c0-1.549,0.511-2.846,1.535-3.892c1.024-1.044,2.339-1.566,3.944-1.566
			c1.521,0,2.77,0.532,3.744,1.598c0.977,1.065,1.464,2.358,1.464,3.88c0,0.236-0.028,0.547-0.082,0.935H72.115z M72.095,14.2h6.102
			c-0.153-0.843-0.503-1.479-1.049-1.909c-0.547-0.429-1.186-0.644-1.92-0.644c-0.829,0-1.521,0.229-2.075,0.685
			C72.601,12.79,72.246,13.412,72.095,14.2z"/>
		<path fill="#3B4645" d="M88.136,9.614c1.19,0,2.152,0.38,2.886,1.141c0.733,0.761,1.1,1.806,1.1,3.134v6.371H89.88v-6.144
			c0-0.774-0.207-1.37-0.622-1.785c-0.415-0.415-0.983-0.623-1.703-0.623c-0.788,0-1.425,0.246-1.909,0.737
			c-0.482,0.491-0.725,1.241-0.725,2.252v5.562H82.68V9.884h2.241v1.329C85.598,10.146,86.671,9.614,88.136,9.614z"/>
		<path fill="#3B4645" d="M99.676,20.53c-1.565,0-2.869-0.525-3.912-1.578c-1.045-1.051-1.566-2.344-1.566-3.88
			c0-1.549,0.521-2.846,1.566-3.892c1.043-1.044,2.347-1.566,3.912-1.566c1.009,0,1.929,0.242,2.76,0.727
			c0.83,0.484,1.453,1.134,1.868,1.951l-1.931,1.12c-0.235-0.498-0.591-0.888-1.069-1.172c-0.477-0.284-1.027-0.426-1.649-0.426
			c-0.914,0-1.677,0.312-2.293,0.934c-0.616,0.623-0.925,1.398-0.925,2.325c0,0.926,0.309,1.702,0.925,2.324
			s1.379,0.935,2.293,0.935c0.608,0,1.159-0.146,1.649-0.437c0.492-0.291,0.861-0.679,1.11-1.162l1.931,1.1
			c-0.442,0.83-1.079,1.488-1.909,1.972C101.604,20.287,100.685,20.53,99.676,20.53z"/>
		<polygon fill="#3B4645" points="109,20 111,20 111,15.875 114.877,10 112.234,10 110.096,13.899 107.942,10 105.29,10 109,15.875 
					"/>
	</g>
</g>
</svg>
