<?xml version="1.0" encoding="utf-8"?>
<!-- Generator: Adobe Illustrator 16.0.3, SVG Export Plug-In . SVG Version: 6.00 Build 0)  -->
<!DOCTYPE svg PUBLIC "-//W3C//DTD SVG 1.1//EN" "http://www.w3.org/Graphics/SVG/1.1/DTD/svg11.dtd">
<svg version="1.1" id="Ebene_1" xmlns="http://www.w3.org/2000/svg" xmlns:xlink="http://www.w3.org/1999/xlink" x="0px" y="0px"
	 width="85.04px" height="85.04px" viewBox="0 0 85.04 85.04" enable-background="new 0 0 85.04 85.04" xml:space="preserve">
<path fill="#57B2E5" d="M42.522,9.816L14.218,26.159v32.722l28.304,16.345l28.307-16.345V26.159L42.522,9.816L42.522,9.816z
	 M8.168,20.354L42.522,0.518L78.913,21.53v41.982L42.522,84.523L6.127,63.513V21.53L8.168,20.354L8.168,20.354z"/>
<g>
	<path fill="#FFFFFF" d="M30.101,34.195h1.775v3.406c-0.923,0.695-2.195,1.067-3.394,1.067c-2.639,0-4.582-1.811-4.582-4.342
		s1.943-4.342,4.618-4.342c1.475,0,2.698,0.504,3.514,1.452l-1.247,1.151c-0.612-0.648-1.319-0.948-2.171-0.948
		c-1.631,0-2.747,1.091-2.747,2.687c0,1.571,1.116,2.687,2.723,2.687c0.528,0,1.02-0.096,1.511-0.36V34.195z"/>
	<path fill="#FFFFFF" d="M39.833,35.826h-4.881c0.18,0.804,0.864,1.295,1.847,1.295c0.684,0,1.175-0.204,1.619-0.624l0.996,1.08
		c-0.6,0.684-1.5,1.043-2.663,1.043c-2.231,0-3.682-1.403-3.682-3.322c0-1.931,1.475-3.322,3.442-3.322
		c1.895,0,3.358,1.271,3.358,3.346C39.869,35.467,39.845,35.67,39.833,35.826z M34.927,34.735h3.178
		c-0.132-0.815-0.744-1.343-1.583-1.343C35.671,33.392,35.059,33.907,34.927,34.735z"/>
	<path fill="#FFFFFF" d="M45.282,38.213c-0.384,0.276-0.947,0.408-1.523,0.408c-1.523,0-2.411-0.78-2.411-2.315v-2.65h-0.996v-1.439
		h0.996v-1.571h1.871v1.571h1.607v1.439h-1.607v2.626c0,0.552,0.301,0.852,0.804,0.852c0.276,0,0.552-0.084,0.756-0.24
		L45.282,38.213z"/>
	<path fill="#FFFFFF" d="M49.507,30.129c0-0.587,0.468-1.043,1.163-1.043c0.696,0,1.163,0.432,1.163,1.008
		c0,0.624-0.467,1.079-1.163,1.079C49.975,31.173,49.507,30.717,49.507,30.129z M49.735,32.072h1.871v6.453h-1.871V32.072z"/>
	<path fill="#FFFFFF" d="M59.944,34.831v3.694h-1.871v-3.406c0-1.043-0.479-1.523-1.308-1.523c-0.899,0-1.547,0.552-1.547,1.739
		v3.19h-1.871v-6.453h1.787v0.756c0.504-0.552,1.26-0.852,2.135-0.852C58.792,31.977,59.944,32.864,59.944,34.831z"/>
	<path fill="#FFFFFF" d="M25.741,46.112h-2.687V44.53h7.316v1.582h-2.687v6.813h-1.943V46.112z"/>
	<path fill="#FFFFFF" d="M30.146,49.698c0-1.941,1.499-3.321,3.55-3.321c2.051,0,3.538,1.38,3.538,3.321
		c0,1.943-1.487,3.322-3.538,3.322C31.645,53.02,30.146,51.641,30.146,49.698z M35.339,49.698c0-1.115-0.708-1.787-1.644-1.787
		c-0.935,0-1.655,0.672-1.655,1.787c0,1.117,0.72,1.787,1.655,1.787C34.631,51.485,35.339,50.815,35.339,49.698z"/>
	<path fill="#FFFFFF" d="M44.987,46.472v6.452h-1.775v-0.768C42.72,52.721,42,53.02,41.208,53.02c-1.619,0-2.758-0.91-2.758-2.902
		v-3.646h1.871v3.37c0,1.08,0.479,1.559,1.307,1.559c0.863,0,1.487-0.551,1.487-1.738v-3.19H44.987z"/>
	<path fill="#FFFFFF" d="M46.25,49.698c0-1.941,1.499-3.321,3.598-3.321c1.355,0,2.423,0.587,2.891,1.644l-1.451,0.779
		c-0.348-0.611-0.863-0.889-1.451-0.889c-0.947,0-1.691,0.66-1.691,1.787c0,1.129,0.744,1.787,1.691,1.787
		c0.588,0,1.104-0.264,1.451-0.887l1.451,0.791c-0.468,1.031-1.535,1.631-2.891,1.631C47.749,53.02,46.25,51.641,46.25,49.698z"/>
	<path fill="#FFFFFF" d="M60.37,49.231v3.693h-1.871v-3.406c0-1.043-0.479-1.523-1.308-1.523c-0.899,0-1.547,0.553-1.547,1.74v3.189
		h-1.871v-8.898h1.871v3.117c0.504-0.502,1.224-0.767,2.051-0.767C59.218,46.376,60.37,47.264,60.37,49.231z"/>
</g>
</svg>
