<?xml version="1.0" encoding="utf-8"?>
<!-- Generator: Adobe Illustrator 16.0.3, SVG Export Plug-In . SVG Version: 6.00 Build 0)  -->
<!DOCTYPE svg PUBLIC "-//W3C//DTD SVG 1.1 Tiny//EN" "http://www.w3.org/Graphics/SVG/1.1/DTD/svg11-tiny.dtd">
<svg version="1.1" baseProfile="tiny" id="Ebene_1" xmlns="http://www.w3.org/2000/svg" xmlns:xlink="http://www.w3.org/1999/xlink"
	 x="0px" y="0px" width="141.73px" height="28.35px" viewBox="0 0 141.73 28.35" xml:space="preserve">
<g>
	<polygon fill-rule="evenodd" fill="#57B2E5" points="113.215,13.964 107.471,17.28 107.471,23.912 113.215,27.228 118.959,23.912 
		118.959,17.28 113.215,13.964 	"/>
	<path fill="#57B2E5" d="M113.215,14.791l-5.025,2.901v5.809l5.025,2.901l5.026-2.901v-5.809L113.215,14.791L113.215,14.791z
		 M107.112,16.661l6.103-3.524l6.462,3.731v7.455l-6.462,3.73l-6.462-3.73v-7.455L107.112,16.661L107.112,16.661z"/>
	<polygon fill-rule="evenodd" fill="#57B2E5" points="127.574,13.964 121.831,17.28 121.831,23.912 127.574,27.228 133.318,23.912 
		133.318,17.28 127.574,13.964 	"/>
	<path fill="#57B2E5" d="M127.574,14.791l-5.026,2.901v5.809l5.026,2.901l5.025-2.901v-5.809L127.574,14.791L127.574,14.791z
		 M121.472,16.661l6.103-3.524l6.461,3.731v7.455l-6.461,3.73l-6.462-3.73v-7.455L121.472,16.661L121.472,16.661z"/>
	<path fill="#57B2E5" d="M120.395,2.354l-5.025,2.902v5.81l5.025,2.902l5.026-2.902v-5.81L120.395,2.354L120.395,2.354z
		 M114.295,4.225l6.1-3.522l6.461,3.731v7.455l-6.461,3.73l-6.462-3.73V4.434L114.295,4.225L114.295,4.225z"/>
	<polygon fill-rule="evenodd" fill="#57B2E5" points="134.753,1.529 129.011,4.845 129.011,11.477 134.753,14.793 140.497,11.477 
		140.497,4.845 134.753,1.529 	"/>
	<path fill="#57B2E5" d="M134.753,2.354l-5.025,2.902v5.81l5.025,2.902l5.026-2.902v-5.81L134.753,2.354L134.753,2.354z
		 M128.653,4.225l6.1-3.522l6.462,3.731v7.455l-6.462,3.73l-6.462-3.73V4.434L128.653,4.225L128.653,4.225z"/>
	<path fill="#FFFFFF" d="M16.154,9.934v0.21h-2.183v-0.21c0-0.281-0.101-0.522-0.302-0.724c-0.202-0.201-0.443-0.302-0.724-0.302
		H3.794c-0.28,0-0.521,0.101-0.723,0.302C2.869,9.412,2.769,9.653,2.769,9.934v2.34c0,0.281,0.101,0.521,0.302,0.723
		C3.272,13.2,3.514,13.3,3.794,13.3h9.152c0.895,0,1.652,0.312,2.275,0.933c0.623,0.624,0.934,1.372,0.934,2.248v2.342
		c0,0.877-0.311,1.626-0.934,2.248c-0.623,0.623-1.38,0.934-2.275,0.934H3.794c-0.876,0-1.626-0.311-2.249-0.934
		c-0.622-0.622-0.933-1.371-0.933-2.248v-0.21h2.157v0.21c0,0.28,0.101,0.521,0.302,0.723c0.202,0.201,0.443,0.303,0.723,0.303
		h9.152c0.28,0,0.522-0.102,0.724-0.303c0.202-0.202,0.302-0.442,0.302-0.723v-2.342c0-0.279-0.101-0.521-0.302-0.722
		c-0.202-0.202-0.443-0.303-0.724-0.303H3.794c-0.876,0-1.626-0.312-2.249-0.935c-0.622-0.622-0.933-1.371-0.933-2.248v-2.34
		c0-0.877,0.311-1.626,0.933-2.249c0.623-0.623,1.373-0.933,2.249-0.933h9.152c0.895,0,1.652,0.31,2.275,0.933
		S16.154,9.057,16.154,9.934L16.154,9.934z"/>
	<path fill="#FFFFFF" d="M31.171,6.752c0.876,0,1.626,0.311,2.248,0.933c0.623,0.623,0.934,1.372,0.934,2.249v8.889
		c0,0.877-0.311,1.626-0.934,2.248c-0.622,0.623-1.372,0.934-2.248,0.934H20.967v6.049h-2.156V6.752H31.171L31.171,6.752z
		 M32.197,18.823V9.934c0-0.281-0.101-0.522-0.303-0.724c-0.202-0.201-0.443-0.302-0.723-0.302h-9.152
		c-0.281,0-0.526,0.101-0.737,0.302c-0.21,0.202-0.315,0.443-0.315,0.724v8.889c0,0.28,0.105,0.521,0.315,0.723
		c0.21,0.201,0.456,0.303,0.737,0.303h9.152c0.28,0,0.521-0.102,0.723-0.303C32.096,19.344,32.197,19.104,32.197,18.823
		L32.197,18.823z"/>
	<path fill="#FFFFFF" d="M48.555,6.752c0.894,0,1.652,0.311,2.274,0.933c0.623,0.623,0.934,1.372,0.934,2.249v12.071h-12.36
		c-0.877,0-1.626-0.311-2.249-0.934c-0.623-0.622-0.934-1.371-0.934-2.248V13.3h13.36V9.934c0-0.281-0.101-0.522-0.303-0.724
		c-0.202-0.201-0.442-0.302-0.723-0.302H36.22V6.752H48.555L48.555,6.752z M49.58,19.849v-4.392H38.376v3.366
		c0,0.28,0.101,0.521,0.303,0.723c0.202,0.201,0.442,0.303,0.723,0.303H49.58L49.58,19.849z"/>
	<path fill="#FFFFFF" d="M57.522,6.752h8.574v2.156h-8.574c-0.28,0-0.521,0.101-0.723,0.302c-0.201,0.202-0.302,0.443-0.302,0.724
		v12.071H54.34V9.934c0-0.877,0.312-1.626,0.934-2.249C55.896,7.063,56.645,6.752,57.522,6.752L57.522,6.752z"/>
	<path fill="#FFFFFF" d="M66.963,9.934c0-0.877,0.312-1.626,0.934-2.249s1.38-0.933,2.275-0.933h12.334v21.301H80.35v-6.049H70.172
		c-0.895,0-1.652-0.311-2.275-0.934c-0.623-0.622-0.934-1.371-0.934-2.248V9.934L66.963,9.934z M69.146,9.934v8.889
		c0,0.28,0.101,0.521,0.302,0.723c0.202,0.201,0.443,0.303,0.724,0.303h9.152c0.279,0,0.521-0.102,0.723-0.303
		c0.202-0.202,0.303-0.442,0.303-0.723V9.934c0-0.281-0.101-0.522-0.303-0.724c-0.201-0.201-0.443-0.302-0.723-0.302h-9.152
		c-0.28,0-0.522,0.101-0.724,0.302C69.247,9.412,69.146,9.653,69.146,9.934L69.146,9.934z"/>
	<path fill="#FFFFFF" d="M100.705,9.934v0.21h-2.184v-0.21c0-0.281-0.101-0.522-0.302-0.724c-0.201-0.201-0.443-0.302-0.725-0.302
		h-9.151c-0.279,0-0.521,0.101-0.724,0.302c-0.2,0.202-0.301,0.443-0.301,0.724v2.34c0,0.281,0.101,0.521,0.301,0.723
		c0.202,0.202,0.444,0.303,0.724,0.303h9.151c0.896,0,1.653,0.312,2.275,0.933c0.623,0.624,0.935,1.372,0.935,2.248v2.342
		c0,0.877-0.312,1.626-0.935,2.248c-0.622,0.623-1.38,0.934-2.275,0.934h-9.151c-0.876,0-1.626-0.311-2.248-0.934
		c-0.622-0.622-0.934-1.371-0.934-2.248v-0.21h2.157v0.21c0,0.28,0.101,0.521,0.301,0.723c0.202,0.201,0.444,0.303,0.724,0.303
		h9.151c0.281,0,0.523-0.102,0.725-0.303c0.201-0.202,0.302-0.442,0.302-0.723v-2.342c0-0.279-0.101-0.521-0.302-0.722
		c-0.201-0.202-0.443-0.303-0.725-0.303h-9.151c-0.876,0-1.626-0.312-2.248-0.935c-0.622-0.622-0.934-1.371-0.934-2.248v-2.34
		c0-0.877,0.312-1.626,0.934-2.249s1.372-0.933,2.248-0.933h9.151c0.896,0,1.653,0.31,2.275,0.933
		C100.394,8.308,100.705,9.057,100.705,9.934L100.705,9.934z"/>
</g>
</svg>
